<svg width="214" height="41" viewBox="0 0 214 41" fill="none" xmlns="http://www.w3.org/2000/svg">
<path fill-rule="evenodd" clip-rule="evenodd" d="M0.904053 0.998566H98.6211V4.99857H4.90405V36.6311H98.6211V40.6311H0.904053V0.998566Z" fill="#777777"/>
<path d="M25.4248 21.5785H20.3115L20.2842 18.7621H24.5771C25.3337 18.7621 25.9535 18.6664 26.4365 18.475C26.9196 18.2745 27.2796 17.9874 27.5166 17.6137C27.7627 17.2309 27.8857 16.766 27.8857 16.2191C27.8857 15.5994 27.7673 15.0981 27.5303 14.7152C27.3024 14.3324 26.9424 14.0544 26.4502 13.8813C25.9671 13.7081 25.3428 13.6215 24.5771 13.6215H21.7334V30.3148H17.6318V10.4086H24.5771C25.7347 10.4086 26.7692 10.518 27.6807 10.7367C28.6012 10.9555 29.3805 11.2882 30.0186 11.7348C30.6566 12.1814 31.1442 12.7465 31.4814 13.4301C31.8187 14.1046 31.9873 14.9066 31.9873 15.8363C31.9873 16.6566 31.8005 17.4132 31.4268 18.1059C31.0622 18.7986 30.4834 19.3637 29.6904 19.8012C28.9066 20.2387 27.8812 20.4802 26.6143 20.5258L25.4248 21.5785ZM25.2471 30.3148H19.1904L20.79 27.1156H25.2471C25.9671 27.1156 26.555 27.0017 27.0107 26.7738C27.4665 26.5369 27.8037 26.2178 28.0225 25.8168C28.2412 25.4158 28.3506 24.9555 28.3506 24.4359C28.3506 23.8526 28.2503 23.3468 28.0498 22.9184C27.8584 22.49 27.5485 22.1619 27.1201 21.934C26.6917 21.697 26.1266 21.5785 25.4248 21.5785H21.4736L21.501 18.7621H26.4229L27.3662 19.8695C28.5785 19.8513 29.5537 20.0655 30.292 20.5121C31.0394 20.9496 31.5817 21.5193 31.9189 22.2211C32.2653 22.9229 32.4385 23.6749 32.4385 24.477C32.4385 25.753 32.1605 26.8285 31.6045 27.7035C31.0485 28.5694 30.2327 29.2211 29.1572 29.6586C28.0908 30.0961 26.7874 30.3148 25.2471 30.3148Z" fill="#FF9801"/>
<path d="M47.9068 10.4086H51.9947V23.5609C51.9947 25.0922 51.6666 26.3819 51.0104 27.4301C50.3632 28.4783 49.4654 29.2667 48.317 29.7953C47.1777 30.324 45.8652 30.5883 44.3795 30.5883C42.8938 30.5883 41.5722 30.324 40.4146 29.7953C39.2662 29.2667 38.3639 28.4783 37.7076 27.4301C37.0605 26.3819 36.7369 25.0922 36.7369 23.5609V10.4086H40.8385V23.5609C40.8385 24.4542 40.9798 25.1833 41.2623 25.7484C41.5449 26.3135 41.9505 26.7283 42.4791 26.9926C43.0169 27.2569 43.6503 27.3891 44.3795 27.3891C45.1269 27.3891 45.7604 27.2569 46.2799 26.9926C46.8085 26.7283 47.2096 26.3135 47.483 25.7484C47.7656 25.1833 47.9068 24.4542 47.9068 23.5609V10.4086Z" fill="#FF9801"/>
<path d="M61.133 10.4086V30.3148H57.0451V10.4086H61.133Z" fill="#FF9801"/>
<path d="M79.1717 27.1156V30.3148H69.1502V27.1156H79.1717ZM70.4764 10.4086V30.3148H66.3748V10.4086H70.4764Z" fill="#FF9801"/>
<path d="M89.0346 30.3148H84.7006L84.7279 27.1156H89.0346C90.1101 27.1156 91.017 26.8741 91.7553 26.391C92.4936 25.8988 93.0495 25.1833 93.4232 24.2445C93.8061 23.3057 93.9975 22.171 93.9975 20.8402V19.8695C93.9975 18.8487 93.8881 17.9509 93.6693 17.1762C93.4597 16.4014 93.1452 15.7497 92.726 15.2211C92.3067 14.6925 91.7917 14.296 91.1811 14.0316C90.5704 13.7582 89.8686 13.6215 89.0756 13.6215H84.6186V10.4086H89.0756C90.4063 10.4086 91.6231 10.6365 92.726 11.0922C93.838 11.5388 94.7995 12.1814 95.6107 13.0199C96.4219 13.8585 97.0463 14.8611 97.4838 16.0277C97.9304 17.1853 98.1537 18.475 98.1537 19.8969V20.8402C98.1537 22.253 97.9304 23.5427 97.4838 24.7094C97.0463 25.876 96.4219 26.8787 95.6107 27.7172C94.8087 28.5466 93.8471 29.1892 92.726 29.6449C91.614 30.0915 90.3835 30.3148 89.0346 30.3148ZM87.0248 10.4086V30.3148H82.9232V10.4086H87.0248Z" fill="#FF9801"/>
<path d="M123.069 27.1156V30.3148H112.474V27.1156H123.069ZM113.813 10.4086V30.3148H109.712V10.4086H113.813ZM121.688 18.516V21.6332H112.474V18.516H121.688ZM123.056 10.4086V13.6215H112.474V10.4086H123.056Z" fill="#777777"/>
<path d="M137.225 25.1059C137.225 24.7504 137.171 24.4314 137.061 24.1488C136.961 23.8572 136.769 23.5928 136.487 23.3559C136.204 23.1098 135.808 22.8682 135.297 22.6313C134.787 22.3943 134.126 22.1482 133.315 21.893C132.413 21.6013 131.556 21.2732 130.745 20.9086C129.943 20.544 129.232 20.1202 128.612 19.6371C128.001 19.1449 127.518 18.5753 127.163 17.9281C126.816 17.281 126.643 16.529 126.643 15.6723C126.643 14.8428 126.825 14.0909 127.19 13.4164C127.555 12.7328 128.065 12.1495 128.721 11.6664C129.378 11.1742 130.152 10.796 131.046 10.5316C131.948 10.2673 132.937 10.1352 134.012 10.1352C135.48 10.1352 136.76 10.3995 137.854 10.9281C138.948 11.4568 139.796 12.1814 140.397 13.102C141.008 14.0225 141.313 15.0753 141.313 16.2602H137.239C137.239 15.6768 137.116 15.1664 136.87 14.7289C136.633 14.2823 136.268 13.9314 135.776 13.6762C135.293 13.421 134.682 13.2934 133.944 13.2934C133.233 13.2934 132.641 13.4027 132.167 13.6215C131.693 13.8311 131.337 14.1182 131.1 14.4828C130.863 14.8383 130.745 15.2393 130.745 15.6859C130.745 16.0232 130.827 16.3285 130.991 16.602C131.164 16.8754 131.419 17.1306 131.756 17.3676C132.094 17.6046 132.508 17.8279 133.001 18.0375C133.493 18.2471 134.062 18.4522 134.71 18.6527C135.794 18.9809 136.747 19.35 137.567 19.7602C138.396 20.1703 139.089 20.6306 139.645 21.141C140.201 21.6514 140.62 22.2302 140.903 22.8773C141.185 23.5245 141.327 24.2582 141.327 25.0785C141.327 25.9444 141.158 26.7191 140.821 27.4027C140.484 28.0863 139.996 28.6651 139.358 29.1391C138.72 29.613 137.959 29.9731 137.075 30.2191C136.191 30.4652 135.202 30.5883 134.108 30.5883C133.124 30.5883 132.153 30.4607 131.196 30.2055C130.239 29.9412 129.368 29.5447 128.585 29.016C127.81 28.4874 127.19 27.8129 126.725 26.9926C126.26 26.1723 126.028 25.2016 126.028 24.0805H130.143C130.143 24.7003 130.239 25.2244 130.43 25.6527C130.622 26.0811 130.891 26.4275 131.237 26.6918C131.592 26.9561 132.012 27.1475 132.495 27.266C132.987 27.3845 133.525 27.4438 134.108 27.4438C134.819 27.4438 135.402 27.3435 135.858 27.143C136.323 26.9425 136.665 26.6645 136.883 26.309C137.111 25.9535 137.225 25.5525 137.225 25.1059Z" fill="#777777"/>
<path d="M154.416 10.4086V30.3148H150.328V10.4086H154.416ZM160.541 10.4086V13.6215H144.299V10.4086H160.541Z" fill="#777777"/>
<path d="M170.896 13.8129L165.482 30.3148H161.121L168.517 10.4086H171.293L170.896 13.8129ZM175.394 30.3148L169.967 13.8129L169.529 10.4086H172.332L179.769 30.3148H175.394ZM175.148 22.9047V26.1176H164.635V22.9047H175.148Z" fill="#777777"/>
<path d="M190.22 10.4086V30.3148H186.132V10.4086H190.22ZM196.345 10.4086V13.6215H180.103V10.4086H196.345Z" fill="#777777"/>
<path d="M213.44 27.1156V30.3148H202.845V27.1156H213.44ZM204.185 10.4086V30.3148H200.083V10.4086H204.185ZM212.06 18.516V21.6332H202.845V18.516H212.06ZM213.427 10.4086V13.6215H202.845V10.4086H213.427Z" fill="#777777"/>
</svg>
