<svg width="213" height="41" viewBox="0 0 213 41" fill="none" xmlns="http://www.w3.org/2000/svg">
<path fill-rule="evenodd" clip-rule="evenodd" d="M0.463623 0.998566H98.1806V4.99857H4.46362V36.6311H98.1806V40.6311H0.463623V0.998566Z" fill="white"/>
<path d="M24.9844 21.5785H19.8711L19.8438 18.7621H24.1367C24.8932 18.7621 25.513 18.6664 25.9961 18.475C26.4792 18.2745 26.8392 17.9874 27.0762 17.6137C27.3223 17.2309 27.4453 16.766 27.4453 16.2191C27.4453 15.5994 27.3268 15.0981 27.0898 14.7152C26.862 14.3324 26.502 14.0544 26.0098 13.8813C25.5267 13.7081 24.9023 13.6215 24.1367 13.6215H21.293V30.3148H17.1914V10.4086H24.1367C25.2943 10.4086 26.3288 10.518 27.2402 10.7367C28.1608 10.9555 28.9401 11.2882 29.5781 11.7348C30.2161 12.1814 30.7038 12.7465 31.041 13.4301C31.3783 14.1046 31.5469 14.9066 31.5469 15.8363C31.5469 16.6566 31.36 17.4132 30.9863 18.1059C30.6217 18.7986 30.043 19.3637 29.25 19.8012C28.4661 20.2387 27.4408 20.4802 26.1738 20.5258L24.9844 21.5785ZM24.8066 30.3148H18.75L20.3496 27.1156H24.8066C25.5267 27.1156 26.1146 27.0017 26.5703 26.7738C27.026 26.5369 27.3633 26.2178 27.582 25.8168C27.8008 25.4158 27.9102 24.9555 27.9102 24.4359C27.9102 23.8526 27.8099 23.3468 27.6094 22.9184C27.418 22.49 27.1081 22.1619 26.6797 21.934C26.2513 21.697 25.6862 21.5785 24.9844 21.5785H21.0332L21.0605 18.7621H25.9824L26.9258 19.8695C28.138 19.8513 29.1133 20.0655 29.8516 20.5121C30.599 20.9496 31.1413 21.5193 31.4785 22.2211C31.8249 22.9229 31.998 23.6749 31.998 24.477C31.998 25.753 31.7201 26.8285 31.1641 27.7035C30.6081 28.5694 29.7923 29.2211 28.7168 29.6586C27.6504 30.0961 26.347 30.3148 24.8066 30.3148Z" fill="#FF9801"/>
<path d="M47.4664 10.4086H51.5543V23.5609C51.5543 25.0922 51.2262 26.3819 50.5699 27.4301C49.9228 28.4783 49.025 29.2667 47.8766 29.7953C46.7372 30.324 45.4247 30.5883 43.9391 30.5883C42.4534 30.5883 41.1318 30.324 39.9742 29.7953C38.8258 29.2667 37.9234 28.4783 37.2672 27.4301C36.6201 26.3819 36.2965 25.0922 36.2965 23.5609V10.4086H40.398V23.5609C40.398 24.4542 40.5393 25.1833 40.8219 25.7484C41.1044 26.3135 41.51 26.7283 42.0387 26.9926C42.5764 27.2569 43.2099 27.3891 43.9391 27.3891C44.6865 27.3891 45.3199 27.2569 45.8395 26.9926C46.3681 26.7283 46.7691 26.3135 47.0426 25.7484C47.3251 25.1833 47.4664 24.4542 47.4664 23.5609V10.4086Z" fill="#FF9801"/>
<path d="M60.6926 10.4086V30.3148H56.6047V10.4086H60.6926Z" fill="#FF9801"/>
<path d="M78.7313 27.1156V30.3148H68.7098V27.1156H78.7313ZM70.0359 10.4086V30.3148H65.9344V10.4086H70.0359Z" fill="#FF9801"/>
<path d="M88.5941 30.3148H84.2602L84.2875 27.1156H88.5941C89.6697 27.1156 90.5766 26.8741 91.3148 26.391C92.0531 25.8988 92.6091 25.1833 92.9828 24.2445C93.3656 23.3057 93.557 22.171 93.557 20.8402V19.8695C93.557 18.8487 93.4477 17.9509 93.2289 17.1762C93.0193 16.4014 92.7048 15.7497 92.2855 15.2211C91.8663 14.6925 91.3513 14.296 90.7406 14.0316C90.1299 13.7582 89.4281 13.6215 88.6352 13.6215H84.1781V10.4086H88.6352C89.9659 10.4086 91.1827 10.6365 92.2855 11.0922C93.3975 11.5388 94.3591 12.1814 95.1703 13.0199C95.9815 13.8585 96.6059 14.8611 97.0434 16.0277C97.49 17.1853 97.7133 18.475 97.7133 19.8969V20.8402C97.7133 22.253 97.49 23.5427 97.0434 24.7094C96.6059 25.876 95.9815 26.8787 95.1703 27.7172C94.3682 28.5466 93.4066 29.1892 92.2855 29.6449C91.1736 30.0915 89.9431 30.3148 88.5941 30.3148ZM86.5844 10.4086V30.3148H82.4828V10.4086H86.5844Z" fill="#FF9801"/>
<path d="M122.629 27.1156V30.3148H112.033V27.1156H122.629ZM113.373 10.4086V30.3148H109.271V10.4086H113.373ZM121.248 18.516V21.6332H112.033V18.516H121.248ZM122.615 10.4086V13.6215H112.033V10.4086H122.615Z" fill="white"/>
<path d="M136.785 25.1059C136.785 24.7504 136.73 24.4314 136.621 24.1488C136.52 23.8572 136.329 23.5928 136.046 23.3559C135.764 23.1098 135.367 22.8682 134.857 22.6313C134.347 22.3943 133.686 22.1482 132.875 21.893C131.972 21.6013 131.115 21.2732 130.304 20.9086C129.502 20.544 128.791 20.1202 128.171 19.6371C127.561 19.1449 127.078 18.5753 126.722 17.9281C126.376 17.281 126.203 16.529 126.203 15.6723C126.203 14.8428 126.385 14.0909 126.75 13.4164C127.114 12.7328 127.625 12.1495 128.281 11.6664C128.937 11.1742 129.712 10.796 130.605 10.5316C131.507 10.2673 132.496 10.1352 133.572 10.1352C135.039 10.1352 136.32 10.3995 137.414 10.9281C138.507 11.4568 139.355 12.1814 139.957 13.102C140.567 14.0225 140.873 15.0753 140.873 16.2602H136.798C136.798 15.6768 136.675 15.1664 136.429 14.7289C136.192 14.2823 135.828 13.9314 135.336 13.6762C134.852 13.421 134.242 13.2934 133.504 13.2934C132.793 13.2934 132.2 13.4027 131.726 13.6215C131.252 13.8311 130.897 14.1182 130.66 14.4828C130.423 14.8383 130.304 15.2393 130.304 15.6859C130.304 16.0232 130.386 16.3285 130.55 16.602C130.724 16.8754 130.979 17.1306 131.316 17.3676C131.653 17.6046 132.068 17.8279 132.56 18.0375C133.052 18.2471 133.622 18.4522 134.269 18.6527C135.354 18.9809 136.306 19.35 137.127 19.7602C137.956 20.1703 138.649 20.6306 139.205 21.141C139.761 21.6514 140.18 22.2302 140.463 22.8773C140.745 23.5245 140.886 24.2582 140.886 25.0785C140.886 25.9444 140.718 26.7191 140.38 27.4027C140.043 28.0863 139.556 28.6651 138.918 29.1391C138.28 29.613 137.518 29.9731 136.634 30.2191C135.75 30.4652 134.761 30.5883 133.668 30.5883C132.683 30.5883 131.712 30.4607 130.755 30.2055C129.798 29.9412 128.928 29.5447 128.144 29.016C127.369 28.4874 126.75 27.8129 126.285 26.9926C125.82 26.1723 125.587 25.2016 125.587 24.0805H129.703C129.703 24.7003 129.798 25.2244 129.99 25.6527C130.181 26.0811 130.45 26.4275 130.796 26.6918C131.152 26.9561 131.571 27.1475 132.054 27.266C132.546 27.3845 133.084 27.4438 133.668 27.4438C134.379 27.4438 134.962 27.3435 135.418 27.143C135.882 26.9425 136.224 26.6645 136.443 26.309C136.671 25.9535 136.785 25.5525 136.785 25.1059Z" fill="white"/>
<path d="M153.976 10.4086V30.3148H149.888V10.4086H153.976ZM160.101 10.4086V13.6215H143.859V10.4086H160.101Z" fill="white"/>
<path d="M170.456 13.8129L165.042 30.3148H160.68L168.077 10.4086H170.852L170.456 13.8129ZM174.954 30.3148L169.526 13.8129L169.089 10.4086H171.891L179.329 30.3148H174.954ZM174.708 22.9047V26.1176H164.194V22.9047H174.708Z" fill="white"/>
<path d="M189.78 10.4086V30.3148H185.692V10.4086H189.78ZM195.905 10.4086V13.6215H179.662V10.4086H195.905Z" fill="white"/>
<path d="M213 27.1156V30.3148H202.404V27.1156H213ZM203.744 10.4086V30.3148H199.643V10.4086H203.744ZM211.619 18.516V21.6332H202.404V18.516H211.619ZM212.986 10.4086V13.6215H202.404V10.4086H212.986Z" fill="white"/>
</svg>
